<svg xmlns="http://www.w3.org/2000/svg" viewBox="0 0 100 100">
<rect width="100" height="100" fill="#EDE7D8"/>
<g transform="translate(50 50) scale(0.08501757469244288 -0.08501757469244288) translate(-582.7777777777778 -314.66)" fill="#3F5D3A">
<path d="M239 -39Q208 -37 177.0 -16.5Q146 4 120 22Q103 39 94.0 58.5Q85 78 79 110Q75 129 79.0 160.0Q83 191 92.0 222.5Q101 254 109 272Q121 300 139.5 332.5Q158 365 176.5 394.5Q195 424 206 442Q213 449 212.5 449.5Q212 450 212 450Q212 455 222.5 475.5Q233 496 241 512Q256 528 258.0 538.0Q260 548 255 554Q253 558 263.5 571.0Q274 584 293.0 600.5Q312 617 335 630Q359 649 381.5 650.5Q404 652 408 641Q408 638 419.5 639.5Q431 641 446.5 644.5Q462 648 474 650Q479 656 497.5 659.5Q516 663 541 666Q554 665 570.0 665.5Q586 666 598.5 667.0Q611 668 611 668Q618 670 631.5 659.5Q645 649 653 631Q660 613 641.0 600.0Q622 587 581 582Q551 578 534.5 575.5Q518 573 499.5 569.5Q481 566 446 558Q421 553 404.0 550.0Q387 547 374.5 538.0Q362 529 347 506Q340 501 329.0 480.0Q318 459 307 438Q279 399 265.5 380.5Q252 362 256 357Q256 357 270.0 354.0Q284 351 288 351Q298 356 312.5 358.0Q327 360 336 362Q398 378 427.5 385.5Q457 393 469.5 396.0Q482 399 492 400Q506 411 520.5 398.5Q535 386 541 369Q548 349 541.0 338.0Q534 327 510.5 320.0Q487 313 444.0 303.5Q401 294 336 276Q281 260 247.0 257.0Q213 254 215 274Q208 278 199.5 266.5Q191 255 184.0 235.0Q177 215 171.5 192.0Q166 169 165.0 149.0Q164 129 168 118Q176 95 193.5 78.5Q211 62 245 52Q265 51 284.0 49.0Q303 47 327 57Q386 67 409.0 78.0Q432 89 437 93Q445 97 447.5 101.0Q450 105 455 105Q452 100 457.0 105.0Q462 110 473 119Q494 137 515.0 141.0Q536 145 550.0 141.5Q564 138 565 133Q571 123 559.0 101.5Q547 80 522.5 56.0Q498 32 465 13Q412 -15 350.0 -26.5Q288 -38 239 -39Z" transform="translate(0 0)"/><path d="M374 -19Q361 -22 348.5 -12.5Q336 -3 331 8Q325 24 323.5 38.5Q322 53 321 72L320 106L279 69Q245 37 215.5 23.5Q186 10 162 10Q151 12 135.5 24.5Q120 37 107.5 52.5Q95 68 90 78Q84 92 86.5 117.0Q89 142 98.5 172.0Q108 202 122.5 231.0Q137 260 156 281Q189 331 238.0 343.5Q287 356 325 335Q343 326 351.0 328.0Q359 330 361 341Q365 357 370.0 371.0Q375 385 384 413Q409 489 427.5 532.0Q446 575 461 607Q472 630 483.0 639.0Q494 648 502 647Q513 647 529.5 639.0Q546 631 551 617Q555 608 554.5 598.0Q554 588 548 577Q535 553 517.5 513.5Q500 474 482.5 427.0Q465 380 450.0 334.0Q435 288 425 253Q419 231 415.5 197.0Q412 163 410.5 127.5Q409 92 410.0 64.5Q411 37 413 29Q419 9 413.0 -1.0Q407 -11 396.0 -14.5Q385 -18 374 -19ZM209 102Q223 107 234.0 114.0Q245 121 260 132Q290 155 303.5 172.0Q317 189 325 214Q330 229 325.5 240.0Q321 251 310 261Q299 270 282.0 268.5Q265 267 243 247Q219 225 202.0 196.0Q185 167 174 113Q172 103 181.0 99.0Q190 95 209 102Z" transform="translate(534 0)"/>
</g>
</svg>